#!OML:ASF E:/inclinewalkrobotboard/Project1/Captureday1/Session1/subject1.ASF
:FULLY-SPECIFIED
:DEGREES
63
root 0 0 0 -2.4092830612094285 -2.199711564829851 -3.3159956155445633
lowerback 10.479594039197163 0.6759556714419529 1.9335065400106135
upperback 0.4465474694757128 1.2288804237092668 1.778442907546868
thorax -5.301061361994757 0.5886273395286993 0.6029773973089306
lowerneck -17.360791990658875 -2.9367535841749284 -1.6781446379450848
upperneck 19.67936173222778 -3.6644931343842386 0.2350957079551108
head 9.082503899833338 -1.7914770036554553 -0.12258344715976399
rclavicle -3.622666517758668E-16 -3.598010868840672E-16
rhumerus -30.38762592147038 -19.228483794658416 -78.31327510874195
rradius 25.498014322080753
rwrist 4.131266373000328
rhand -17.46841088955003 23.42304808846156
rfingers 7.125020000000037
rthumb 8.766833256320577 -6.412882563293248
lclavicle -6.483041331927029E-16 -2.029393453042047E-16
lhumerus -30.338814478589175 -1.4812113558404398 82.29086370750372
lradius 32.24501439073925
lwrist 5.660121765740795
lhand -25.633580642651726 23.866417808267514
lfingers 7.123947546452277
lthumb 0.8867522759223494 53.509489318676984
rfemur -20.815666705895215 2.0722154232825023 21.596840622028907
rtibia 56.4573182751253
rfoot 0.2662014629250997 -5.814200241130939
rtoes 7.169584292780207
lfemur 3.291284015499441 -3.348414263714495 -26.099976971942333
ltibia 19.068894153114794
lfoot -15.808324849980767 0.5713331644301132
ltoes -3.799838983530752
64
root 0 0 0 -2.4686726937533034 -1.6576811351999474 -2.6232547296873445
lowerback 10.472384525709481 0.361397916441848 1.170195112270497
upperback 0.4468949327920968 0.7246090275452957 1.787647845670325
thorax -5.300969050577313 0.35728815811890724 1.1105291531296642
lowerneck -17.392690982489174 -2.871687339410888 -1.722340762873257
upperneck 19.740863842275044 -3.5567575327486702 0.18946279654806997
head 9.10657855162566 -1.7480732570202595 -0.11915475320923274
rclavicle -3.6804026475937643E-16 -3.6118218704049423E-16
rhumerus -30.29482934388777 -19.140937126505364 -78.29560839126802
rradius 25.58146810466541
rwrist 4.150723796661789
rhand -17.482726211719807 23.3561024056656
rfingers 7.1250200000000365
rthumb 8.75293008679581 -6.478573067094192
lclavicle -6.551400364200936E-16 -2.0798713146273407E-16
lhumerus -30.219859619967796 -1.6042225981941414 82.28242163515705
lradius 32.49319466332424
lwrist 5.6873559024090286
lhand -25.56308178047116 23.913850806996738
lfingers 7.123914685609489
lthumb 0.9557149284142028 53.527922384165414
rfemur -20.77974028712793 2.2461772551869243 21.56078539221166
rtibia 55.590534496546525
rfoot -0.1442940484013313 -5.966719929245244
rtoes 6.813031723321514
lfemur 3.447818923759767 -3.3552542877477505 -26.150425298158193
ltibia 18.999974729406347
lfoot -15.936349604531523 0.6271472303596415
ltoes -3.8579906531600683
65
root 0 0 0 -2.5469216993015555 -1.0842413928538974 -1.7039221226329766
lowerback 10.456131969310867 -0.03125703631035892 0.16132394444597842
upperback 0.459947566786846 0.08758548893326867 1.7804457520543457
thorax -5.282792533740624 0.06418060046646218 1.756601446277122
lowerneck -17.367175869641958 -2.796269572745608 -1.8092376035141804
upperneck 19.766506293670126 -3.4347930016411583 0.18591885484266335
head 9.108284104080038 -1.700118185249182 -0.090900177048308
rclavicle -3.749297754992963E-16 -3.5874869594831484E-16
rhumerus -30.14330959284285 -18.997275205293796 -78.2635483383478
rradius 25.72327128409293
rwrist 4.182686261227484
rhand -17.507180622806857 23.244305383377203
rfingers 7.125020000000035
rthumb 8.7297525220484 -6.588198550224476
lclavicle -6.642494662258409E-16 -2.0819660993841208E-16
lhumerus -30.049183828386266 -1.7889504767928734 82.26984590492273
lradius 32.8525883814106
lwrist 5.7229308062522435
lhand -25.456795973313 23.978264529694314
lfingers 7.123832497913881
lthumb 1.0569907427111929 53.556194812683344
rfemur -20.68778698642513 2.4747944527581227 21.550706485882742
rtibia 54.42143934867569
rfoot -0.682718523233472 -6.151723120412331
rtoes 6.361988709820497
lfemur 3.6160904396562277 -3.363419661219498 -26.20247477988754
ltibia 18.920961062443762
lfoot -16.084391407583926 0.6981510595293274
ltoes -3.9221247706540825
66
root 0 0 0 -2.6342177821755715 -0.6139624747484191 -0.6627305420072799
lowerback 10.431372679425182 -0.44819539237714345 -0.9760107954717548
upperback 0.4924310863897663 -0.5982290989771257 1.7487718238422976
thorax -5.238290648504423 -0.252419080958549 2.456270909612929
lowerneck -17.244935633879592 -2.7236409168231397 -1.9464323906882646
upperneck 19.723178303175295 -3.3225065996305627 0.2552153161689983
head 9.070659366318868 -1.6570463442602468 -0.02840328780755641
rclavicle -3.8455255579519727E-16 -3.5337589261739876E-16
rhumerus -29.946349699460708 -18.81342074002989 -78.22116115651893
rradius 25.90466021491498
rwrist 4.223902577481749
rhand -17.539492419224658 23.10014635911935
rfingers 7.125020000000033
rthumb 8.699486942298517 -6.729427200728402
lclavicle -6.745479298105585E-16 -2.0529417843100108E-16
lhumerus -29.8175088772306 -2.0419927402467906 82.25370345915634
lradius 33.342407436585155
lwrist 5.771167428945503
lhand -25.3126610274987 24.065987042069448
lfingers 7.123713561306557
lthumb 1.1933716172941864 53.595694158106475
rfemur -20.309118578454502 2.8938732783945724 21.66919881626727
rtibia 52.226043234697215
rfoot -1.68579611333608 -6.429782928128841
rtoes 5.597960516406281
lfemur 3.8224272950493887 -3.358090472808792 -26.256514955681453
ltibia 18.943632572549266
lfoot -16.19313168800799 0.7174697851639893
ltoes -4.025657337405746
